<svg xmlns="http://www.w3.org/2000/svg" xmlns:xlink="http://www.w3.org/1999/xlink" width="1920" zoomAndPan="magnify" viewBox="0 0 1440 809.999993" height="1080" preserveAspectRatio="xMidYMid meet" version="1.2"><defs><clipPath id="de2aeca387"><path d="M 540.476562 322.078125 L 643.914062 322.078125 L 643.914062 465 L 540.476562 465 Z M 540.476562 322.078125 "/></clipPath><clipPath id="3373e0672c"><path d="M 578.28125 324.109375 C 577.832031 366.332031 577.457031 372.933594 576.632812 382.90625 C 575.433594 396.859375 572.734375 419.957031 571.007812 432.859375 C 569.882812 440.957031 569.058594 447.859375 567.78125 452.582031 C 566.957031 455.433594 566.132812 457.308594 565.15625 459.183594 C 564.257812 460.757812 563.359375 462.332031 562.082031 463.308594 C 561.03125 464.207031 559.683594 464.882812 558.40625 464.957031 C 557.132812 465.03125 555.707031 464.507812 554.507812 463.757812 C 553.234375 462.933594 552.183594 461.734375 550.984375 459.933594 C 548.957031 457.007812 546.183594 451.082031 544.609375 447.332031 C 543.484375 444.484375 542.734375 442.15625 542.132812 439.457031 C 541.53125 436.757812 541.082031 433.984375 540.933594 431.28125 C 540.707031 428.65625 540.707031 425.957031 540.933594 423.332031 C 541.15625 420.859375 541.308594 418.15625 542.207031 415.90625 C 543.03125 413.65625 544.308594 411.40625 546.03125 409.757812 C 547.683594 408.183594 550.082031 406.757812 552.332031 406.234375 C 554.582031 405.632812 557.058594 405.78125 559.308594 406.308594 C 561.558594 406.832031 563.734375 408.183594 565.832031 409.53125 C 568.082031 411.109375 569.507812 412.609375 572.207031 415.308594 C 577.382812 420.558594 588.332031 434.28125 594.03125 439.984375 C 597.332031 443.359375 599.433594 445.308594 602.28125 447.484375 C 604.832031 449.433594 607.457031 451.683594 610.15625 452.507812 C 612.558594 453.257812 615.109375 453.332031 617.507812 452.808594 C 620.058594 452.28125 622.683594 450.933594 624.933594 449.207031 C 627.40625 447.332031 629.582031 444.558594 631.457031 441.558594 C 633.632812 438.257812 635.507812 434.207031 636.859375 430.007812 C 638.359375 425.433594 639.332031 420.257812 639.933594 415.007812 C 640.53125 409.457031 640.683594 403.457031 640.457031 397.53125 C 640.15625 391.457031 639.484375 385.082031 638.433594 379.007812 C 637.382812 373.082031 636.03125 367.082031 634.15625 361.609375 C 632.433594 356.433594 630.332031 351.40625 627.859375 346.984375 C 625.457031 342.933594 623.207031 338.882812 619.757812 335.808594 C 616.082031 332.65625 610.832031 330.484375 606.257812 328.757812 C 601.832031 327.109375 597.109375 325.832031 592.757812 325.457031 C 588.707031 325.082031 584.507812 325.382812 580.90625 326.28125 C 577.457031 327.183594 574.15625 328.757812 571.382812 330.707031 C 568.683594 332.582031 566.207031 335.058594 564.40625 337.832031 C 562.53125 340.609375 561.183594 343.984375 560.28125 347.359375 C 559.382812 350.808594 558.632812 354.183594 559.007812 358.234375 C 559.609375 363.707031 565.082031 374.359375 565.234375 376.984375 C 565.234375 377.734375 565.234375 378.109375 564.933594 378.40625 C 564.558594 378.707031 563.582031 379.007812 563.132812 378.78125 C 562.683594 378.558594 562.234375 377.65625 562.308594 377.132812 C 562.308594 376.757812 562.757812 376.234375 563.132812 376.082031 C 563.507812 375.859375 564.183594 375.859375 564.558594 376.15625 C 564.933594 376.382812 565.308594 377.359375 565.234375 377.808594 C 565.15625 378.257812 564.632812 378.707031 564.257812 378.859375 C 563.808594 378.933594 563.132812 378.859375 562.53125 378.257812 C 560.507812 376.234375 556.609375 363.933594 556.082031 358.007812 C 555.632812 353.582031 556.53125 349.90625 557.582031 346.15625 C 558.558594 342.484375 560.132812 338.808594 562.234375 335.734375 C 564.332031 332.734375 567.03125 330.109375 570.109375 328.007812 C 573.183594 325.90625 576.859375 324.257812 580.609375 323.359375 C 584.582031 322.382812 589.082031 322.15625 593.433594 322.53125 C 598.082031 322.984375 602.957031 324.257812 607.609375 326.058594 C 612.558594 328.007812 618.183594 330.558594 622.082031 334.007812 C 625.683594 337.234375 628.082031 341.507812 630.558594 345.78125 C 633.183594 350.359375 635.28125 355.53125 637.082031 360.859375 C 638.957031 366.484375 640.382812 372.632812 641.433594 378.707031 C 642.484375 384.933594 643.15625 391.382812 643.457031 397.683594 C 643.683594 403.683594 643.53125 409.832031 642.859375 415.609375 C 642.257812 421.007812 641.207031 426.484375 639.632812 431.28125 C 638.132812 435.707031 636.109375 439.984375 633.78125 443.507812 C 631.609375 446.734375 629.132812 449.808594 626.28125 451.832031 C 623.65625 453.78125 620.507812 455.28125 617.507812 455.808594 C 614.65625 456.257812 611.507812 456.03125 608.734375 455.132812 C 605.734375 454.15625 602.957031 451.832031 600.257812 449.734375 C 597.332031 447.484375 595.15625 445.457031 591.78125 442.007812 C 586.15625 436.308594 575.132812 422.582031 570.183594 417.484375 C 567.707031 415.007812 566.359375 413.65625 564.40625 412.234375 C 562.683594 410.957031 560.957031 409.832031 559.082031 409.308594 C 557.28125 408.78125 555.332031 408.558594 553.53125 408.933594 C 551.734375 409.308594 549.78125 410.28125 548.433594 411.484375 C 547.007812 412.757812 545.882812 414.632812 545.132812 416.507812 C 544.308594 418.53125 544.15625 421.007812 543.933594 423.40625 C 543.707031 425.808594 543.707031 428.359375 543.859375 430.90625 C 544.082031 433.457031 544.234375 435.632812 544.984375 438.558594 C 546.03125 442.609375 548.28125 448.832031 550.308594 452.808594 C 551.957031 456.03125 554.207031 459.707031 555.78125 461.058594 C 556.53125 461.734375 557.132812 462.109375 557.882812 462.183594 C 558.558594 462.183594 559.234375 461.882812 559.90625 461.433594 C 560.808594 460.757812 561.632812 459.40625 562.382812 458.058594 C 563.28125 456.40625 564.109375 454.234375 564.78125 451.984375 C 565.609375 449.359375 565.90625 447.332031 566.65625 442.984375 C 568.382812 431.808594 572.28125 398.582031 573.632812 382.757812 C 574.53125 372.40625 574.832031 366.183594 575.132812 357.109375 C 575.433594 346.832031 573.859375 327.933594 575.28125 324.109375 C 575.65625 323.207031 576.109375 322.683594 576.558594 322.609375 C 577.082031 322.609375 578.28125 324.109375 578.28125 324.109375 "/></clipPath><clipPath id="61950e838d"><path d="M 656.113281 378.085938 L 729.511719 378.085938 L 729.511719 433 L 656.113281 433 Z M 656.113281 378.085938 "/></clipPath><clipPath id="d084513f76"><path d="M 662.960938 407.511719 C 667.234375 397.164062 667.835938 394.988281 668.0625 392.363281 C 668.285156 389.289062 668.4375 384.1875 667.6875 382.464844 C 667.3125 381.640625 666.859375 381.1875 666.335938 380.964844 C 665.8125 380.8125 665.210938 380.890625 664.6875 381.113281 C 664.085938 381.414062 663.410156 382.089844 662.886719 382.839844 C 662.136719 383.890625 661.460938 385.464844 660.9375 387.113281 C 660.261719 389.0625 659.660156 391.386719 659.359375 393.789062 C 659.0625 396.339844 659.0625 399.113281 659.210938 401.8125 C 659.4375 404.511719 659.886719 407.4375 660.484375 410.0625 C 661.085938 412.539062 661.761719 415.089844 662.8125 417.1875 C 663.710938 419.136719 664.761719 421.089844 666.261719 422.363281 C 667.6875 423.636719 669.5625 424.539062 671.4375 424.988281 C 673.234375 425.4375 675.410156 425.738281 677.210938 425.136719 C 679.234375 424.464844 681.1875 422.589844 682.835938 420.789062 C 684.636719 418.914062 686.285156 416.4375 687.484375 413.886719 C 688.835938 411.1875 689.660156 408.261719 690.484375 404.738281 C 691.609375 400.089844 691.984375 390.789062 692.886719 388.164062 C 693.109375 387.339844 693.859375 387.039062 693.710938 386.589844 C 693.5625 386.136719 691.910156 385.988281 691.6875 385.613281 C 691.535156 385.386719 691.535156 385.089844 691.6875 384.863281 C 691.984375 384.488281 693.035156 383.589844 693.785156 383.964844 C 696.5625 385.164062 700.460938 407.4375 704.0625 415.839844 C 706.535156 421.613281 709.234375 428.4375 711.5625 429.9375 C 712.609375 430.613281 713.734375 430.539062 714.5625 430.089844 C 715.535156 429.5625 716.210938 427.761719 716.8125 426.1875 C 717.636719 424.011719 717.9375 421.761719 718.609375 418.238281 C 720.035156 411.488281 722.359375 394.988281 724.011719 388.011719 C 724.910156 384.339844 725.359375 380.8125 726.5625 379.613281 C 727.085938 379.089844 727.984375 378.863281 728.4375 379.015625 C 728.886719 379.238281 729.335938 380.363281 729.261719 380.890625 C 729.1875 381.265625 728.511719 381.789062 728.136719 381.863281 C 727.609375 381.9375 726.710938 381.488281 726.484375 381.113281 C 726.261719 380.738281 726.261719 379.988281 726.484375 379.6875 C 726.785156 379.3125 727.6875 378.863281 728.136719 378.9375 C 728.585938 379.015625 729.035156 379.464844 729.1875 379.839844 C 729.335938 380.289062 729.335938 380.964844 729.035156 381.265625 C 728.734375 381.640625 727.761719 381.9375 727.3125 381.789062 C 726.9375 381.714844 726.484375 381.1875 726.335938 380.8125 C 726.261719 380.363281 726.410156 379.613281 726.785156 379.3125 C 727.085938 379.015625 727.984375 378.863281 728.4375 379.015625 C 728.886719 379.238281 729.1875 379.6875 729.335938 380.515625 C 729.636719 382.988281 726.1875 391.089844 724.984375 397.011719 C 723.5625 403.761719 722.660156 413.289062 721.535156 418.988281 C 720.785156 422.589844 720.484375 425.4375 719.285156 427.761719 C 718.386719 429.714844 717.1875 431.738281 715.609375 432.488281 C 714.109375 433.164062 711.636719 433.011719 709.984375 432.1875 C 708.109375 431.136719 706.835938 428.214844 705.410156 425.886719 C 703.835938 423.1875 702.710938 420.5625 701.210938 416.8125 C 698.960938 411.261719 695.660156 401.289062 694.011719 395.4375 C 692.886719 391.464844 691.160156 387.039062 691.609375 385.238281 C 691.835938 384.414062 692.585938 383.8125 693.035156 383.8125 C 693.5625 383.738281 694.535156 385.089844 694.609375 385.011719 C 694.6875 384.9375 693.859375 383.890625 693.859375 383.890625 C 693.710938 383.964844 695.585938 386.363281 695.8125 388.386719 C 696.410156 392.214844 694.535156 400.761719 693.335938 405.714844 C 692.4375 409.464844 691.535156 412.613281 689.960938 415.613281 C 688.535156 418.386719 686.734375 421.089844 684.636719 423.1875 C 682.535156 425.214844 679.984375 427.3125 677.511719 427.988281 C 675.1875 428.664062 672.410156 428.363281 670.160156 427.6875 C 667.910156 427.089844 665.585938 425.738281 663.859375 424.164062 C 662.136719 422.589844 661.011719 420.339844 659.960938 418.164062 C 658.835938 415.839844 658.160156 413.136719 657.484375 410.511719 C 656.886719 407.664062 656.4375 404.664062 656.210938 401.738281 C 656.0625 398.886719 656.0625 395.8125 656.4375 393.113281 C 656.8125 390.488281 657.410156 387.9375 658.234375 385.761719 C 658.984375 383.8125 659.8125 381.863281 660.9375 380.515625 C 661.910156 379.464844 663.1875 378.5625 664.386719 378.265625 C 665.511719 377.964844 666.9375 378.113281 667.910156 378.714844 C 668.960938 379.238281 669.9375 380.515625 670.535156 381.714844 C 671.136719 383.0625 671.285156 384.789062 671.359375 386.511719 C 671.511719 388.539062 671.285156 390.714844 670.984375 392.964844 C 670.609375 395.4375 670.085938 398.214844 669.1875 400.761719 C 668.359375 403.464844 666.9375 407.4375 665.734375 408.714844 C 665.136719 409.3125 664.386719 409.6875 663.9375 409.539062 C 663.484375 409.386719 662.960938 407.511719 662.960938 407.511719 "/></clipPath><clipPath id="683e9a299c"><path d="M 749.917969 333.679688 L 762.4375 333.679688 L 762.4375 453.800781 L 749.917969 453.800781 Z M 749.917969 333.679688 "/></clipPath><clipPath id="b086ed3011"><path d="M 762.402344 335.363281 C 757.226562 396.9375 755.953125 442.761719 754.527344 450.9375 C 754.226562 452.585938 753.929688 453.789062 753.628906 453.789062 C 753.402344 453.789062 753.328125 451.761719 752.878906 451.613281 C 752.503906 451.539062 751.753906 452.886719 751.304688 452.8125 C 750.777344 452.738281 749.878906 451.6875 749.953125 451.164062 C 749.953125 450.710938 751.152344 449.738281 751.601562 449.8125 C 752.128906 449.886719 753.027344 451.085938 752.878906 451.613281 C 752.804688 452.0625 751.601562 452.886719 751.078125 452.738281 C 750.628906 452.664062 749.878906 451.835938 749.953125 451.386719 C 749.953125 450.863281 751.003906 449.8125 751.453125 449.8125 C 751.976562 449.8125 752.953125 451.164062 752.878906 451.613281 C 752.804688 452.136719 751.753906 452.886719 751.304688 452.8125 C 750.777344 452.738281 749.878906 451.386719 749.953125 451.386719 C 749.953125 451.3125 751.003906 452.511719 751.453125 452.289062 C 754.453125 450.710938 754.378906 395.363281 755.804688 375.488281 C 756.628906 362.886719 757.601562 352.011719 758.351562 344.511719 C 758.804688 340.3125 758.503906 336.113281 759.554688 334.613281 C 760.003906 333.9375 760.828125 333.5625 761.277344 333.710938 C 761.804688 333.789062 762.402344 335.363281 762.402344 335.363281 "/></clipPath><clipPath id="235d56f786"><path d="M 749.894531 323.589844 L 898.527344 323.589844 L 898.527344 486.667969 L 749.894531 486.667969 Z M 749.894531 323.589844 "/></clipPath><clipPath id="118ba2e2f1"><path d="M 758.507812 349.835938 C 774.933594 333.335938 781.160156 329.210938 785.132812 327.035156 C 787.683594 325.683594 789.558594 324.933594 791.660156 324.410156 C 793.683594 324.035156 795.859375 323.808594 797.660156 324.183594 C 799.234375 324.558594 800.808594 325.308594 801.933594 326.359375 C 802.984375 327.257812 803.808594 328.609375 804.183594 329.960938 C 804.632812 331.535156 804.558594 333.257812 804.335938 335.132812 C 804.035156 337.382812 803.132812 339.933594 802.160156 342.558594 C 801.109375 345.558594 799.609375 349.007812 798.035156 352.160156 C 796.308594 355.535156 794.285156 359.058594 792.183594 362.285156 C 790.160156 365.433594 787.910156 368.507812 785.660156 371.359375 C 783.558594 374.058594 781.835938 376.308594 779.132812 378.933594 C 775.609375 382.460938 769.683594 387.710938 765.859375 390.109375 C 763.382812 391.757812 761.359375 392.734375 759.257812 393.332031 C 757.460938 393.785156 755.585938 394.007812 754.085938 393.707031 C 752.882812 393.410156 751.757812 392.734375 751.007812 391.910156 C 750.410156 391.082031 749.960938 389.882812 749.960938 388.835938 C 749.960938 387.785156 750.257812 386.507812 750.933594 385.609375 C 751.609375 384.632812 752.882812 383.734375 754.160156 383.285156 C 755.585938 382.757812 757.609375 382.835938 759.410156 383.058594 C 761.433594 383.359375 763.609375 384.109375 765.710938 384.933594 C 768.035156 385.984375 770.507812 387.335938 772.835938 388.835938 C 775.308594 390.558594 777.257812 392.132812 780.183594 394.683594 C 785.132812 398.957031 794.660156 409.160156 799.234375 412.683594 C 801.484375 414.410156 802.757812 415.308594 804.632812 416.058594 C 806.433594 416.808594 808.382812 417.257812 810.257812 417.257812 C 812.285156 417.183594 814.308594 416.507812 816.335938 415.609375 C 818.660156 414.558594 821.058594 412.910156 823.308594 410.957031 C 825.710938 408.859375 828.109375 406.082031 830.132812 403.382812 C 832.160156 400.609375 834.335938 397.832031 835.308594 394.535156 C 836.433594 390.859375 836.433594 385.609375 835.984375 382.085938 C 835.683594 379.382812 834.933594 376.757812 833.882812 375.109375 C 833.210938 373.910156 832.234375 372.933594 831.183594 372.558594 C 830.210938 372.183594 829.007812 372.410156 827.808594 372.632812 C 826.535156 372.933594 825.183594 373.308594 823.757812 374.359375 C 821.359375 376.007812 817.160156 380.285156 815.734375 382.984375 C 814.835938 384.710938 814.683594 386.359375 814.683594 387.859375 C 814.609375 389.210938 814.910156 390.484375 815.359375 391.535156 C 815.808594 392.582031 816.558594 393.410156 817.382812 394.234375 C 818.210938 395.132812 819.257812 395.882812 820.460938 396.484375 C 821.585938 397.082031 823.085938 397.457031 824.433594 397.609375 C 825.710938 397.757812 827.132812 397.910156 828.335938 397.535156 C 829.683594 397.082031 831.035156 396.035156 832.085938 395.132812 C 833.058594 394.234375 834.109375 393.183594 834.632812 392.058594 C 835.160156 391.007812 834.859375 389.433594 835.234375 388.683594 C 835.460938 388.160156 835.835938 387.785156 836.285156 387.710938 C 836.734375 387.632812 837.484375 387.859375 837.859375 388.308594 C 838.382812 388.910156 838.007812 390.484375 838.535156 391.308594 C 839.058594 392.132812 840.035156 392.734375 841.007812 393.183594 C 842.058594 393.785156 843.257812 394.308594 844.460938 394.382812 C 845.808594 394.535156 847.382812 394.308594 848.734375 393.859375 C 850.234375 393.332031 851.808594 392.433594 853.160156 391.308594 C 854.585938 390.183594 855.859375 388.535156 856.910156 386.960938 C 857.960938 385.460938 858.785156 383.882812 859.460938 382.085938 C 860.285156 379.984375 860.507812 376.234375 861.335938 375.183594 C 861.710938 374.734375 862.085938 374.507812 862.535156 374.507812 C 862.910156 374.433594 863.507812 374.734375 863.808594 375.109375 C 864.035156 375.410156 864.183594 376.085938 864.035156 376.460938 C 863.808594 376.835938 862.984375 376.683594 862.535156 377.210938 C 861.410156 378.632812 860.882812 383.882812 860.210938 387.558594 C 859.460938 391.757812 859.007812 394.757812 858.335938 401.058594 C 856.984375 415.609375 856.160156 460.160156 854.210938 473.207031 C 853.535156 478.160156 853.460938 481.007812 851.808594 483.257812 C 850.535156 485.058594 848.210938 486.484375 846.410156 486.558594 C 844.609375 486.632812 842.433594 485.207031 840.859375 483.632812 C 838.984375 481.757812 837.632812 478.457031 836.660156 475.234375 C 835.609375 471.484375 835.308594 466.984375 835.460938 462.484375 C 835.683594 457.457031 836.808594 451.910156 838.308594 446.507812 C 840.035156 440.660156 842.734375 434.433594 845.585938 428.660156 C 848.507812 422.734375 852.035156 416.734375 855.785156 411.332031 C 859.308594 406.160156 863.359375 401.207031 867.257812 396.859375 C 870.859375 392.808594 874.085938 389.734375 878.285156 385.835938 C 883.234375 381.183594 895.160156 374.808594 895.382812 370.984375 C 895.460938 368.808594 890.507812 366.785156 890.285156 365.433594 C 890.210938 364.835938 890.660156 364.085938 891.109375 363.859375 C 891.558594 363.632812 892.535156 363.785156 892.910156 364.160156 C 893.210938 364.535156 893.285156 365.585938 893.058594 365.960938 C 892.835938 366.335938 892.234375 366.710938 891.859375 366.710938 C 891.335938 366.632812 890.507812 366.035156 890.359375 365.660156 C 890.210938 365.210938 890.285156 364.535156 890.585938 364.234375 C 890.960938 363.933594 892.007812 363.785156 892.757812 364.085938 C 894.183594 364.609375 897.035156 367.535156 897.710938 369.109375 C 898.160156 370.160156 898.234375 371.058594 897.933594 372.035156 C 897.632812 373.234375 896.734375 374.210938 895.382812 375.710938 C 892.535156 378.710938 884.882812 383.882812 880.382812 388.007812 C 876.410156 391.609375 873.183594 394.757812 869.660156 398.734375 C 865.757812 403.007812 861.859375 407.808594 858.335938 412.910156 C 854.734375 418.160156 851.210938 424.007812 848.359375 429.785156 C 845.585938 435.410156 842.960938 441.410156 841.308594 447.035156 C 839.734375 452.207031 838.683594 457.535156 838.460938 462.257812 C 838.234375 466.382812 838.609375 470.660156 839.433594 474.035156 C 840.109375 476.808594 841.234375 479.582031 842.585938 481.308594 C 843.710938 482.660156 845.359375 484.007812 846.484375 484.007812 C 847.535156 484.007812 848.507812 483.183594 849.257812 482.058594 C 850.460938 480.257812 850.609375 477.484375 851.210938 472.984375 C 852.933594 460.457031 853.984375 415.308594 855.410156 400.683594 C 856.007812 394.308594 856.535156 390.859375 857.285156 386.960938 C 857.808594 383.882812 858.109375 381.109375 859.007812 378.933594 C 859.683594 377.285156 860.585938 375.410156 861.558594 374.882812 C 862.234375 374.585938 863.359375 374.660156 863.808594 375.109375 C 864.335938 375.710938 863.882812 377.660156 863.660156 379.007812 C 863.359375 380.433594 862.757812 381.933594 862.160156 383.433594 C 861.335938 385.234375 860.433594 387.257812 859.160156 388.984375 C 857.882812 390.785156 856.308594 392.582031 854.660156 393.933594 C 853.007812 395.207031 851.058594 396.257812 849.183594 396.785156 C 847.382812 397.308594 845.359375 397.457031 843.632812 397.234375 C 841.984375 397.007812 840.410156 396.332031 839.132812 395.507812 C 837.859375 394.757812 836.507812 393.785156 835.835938 392.582031 C 835.234375 391.457031 834.933594 389.507812 835.234375 388.683594 C 835.382812 388.160156 835.835938 387.859375 836.285156 387.710938 C 836.660156 387.632812 837.335938 387.785156 837.632812 388.007812 C 837.933594 388.382812 837.933594 389.660156 838.085938 389.660156 C 838.160156 389.660156 838.234375 388.984375 838.308594 389.058594 C 838.382812 389.058594 838.460938 390.410156 838.160156 391.308594 C 837.558594 392.957031 835.382812 396.109375 833.660156 397.683594 C 832.160156 399.035156 830.359375 400.007812 828.632812 400.457031 C 826.984375 400.910156 825.257812 400.757812 823.609375 400.457031 C 821.882812 400.234375 820.160156 399.707031 818.660156 398.882812 C 817.234375 398.132812 815.960938 397.160156 814.910156 395.957031 C 813.933594 394.832031 812.960938 393.558594 812.433594 392.132812 C 811.910156 390.632812 811.609375 388.984375 811.757812 387.257812 C 811.835938 385.308594 812.210938 383.285156 813.410156 381.183594 C 815.058594 378.109375 819.710938 373.460938 822.558594 371.585938 C 824.433594 370.382812 826.160156 369.859375 827.882812 369.632812 C 829.535156 369.410156 831.335938 369.484375 832.757812 370.160156 C 834.335938 370.910156 835.683594 372.335938 836.660156 374.058594 C 837.933594 376.160156 838.683594 379.085938 838.984375 382.234375 C 839.359375 386.132812 839.210938 391.910156 837.933594 395.882812 C 836.808594 399.484375 834.558594 402.484375 832.382812 405.410156 C 830.210938 408.332031 827.585938 411.257812 824.960938 413.507812 C 822.484375 415.535156 819.785156 417.410156 817.085938 418.535156 C 814.683594 419.507812 812.132812 420.183594 809.734375 420.183594 C 807.484375 420.183594 805.160156 419.507812 803.132812 418.609375 C 801.035156 417.785156 799.757812 416.882812 797.210938 414.933594 C 791.507812 410.582031 777.335938 395.734375 771.410156 391.457031 C 768.632812 389.507812 766.910156 388.757812 764.808594 387.859375 C 762.933594 387.035156 761.058594 386.359375 759.335938 386.058594 C 757.984375 385.835938 756.558594 385.683594 755.507812 385.910156 C 754.683594 386.058594 753.933594 386.285156 753.484375 386.882812 C 753.035156 387.558594 752.734375 389.132812 752.960938 389.808594 C 753.183594 390.332031 753.632812 390.558594 754.234375 390.785156 C 755.132812 391.007812 756.710938 390.933594 758.058594 390.558594 C 759.859375 390.109375 761.808594 389.210938 764.058594 387.710938 C 767.660156 385.460938 773.433594 380.359375 776.882812 376.984375 C 779.507812 374.433594 780.933594 372.785156 783.257812 369.632812 C 786.785156 364.910156 792.484375 356.210938 795.257812 350.960938 C 797.132812 347.433594 798.257812 344.585938 799.308594 341.734375 C 800.210938 339.335938 800.960938 337.007812 801.335938 335.058594 C 801.558594 333.632812 801.785156 332.359375 801.484375 331.234375 C 801.335938 330.335938 800.960938 329.433594 800.359375 328.757812 C 799.683594 328.085938 798.632812 327.410156 797.585938 327.109375 C 796.234375 326.808594 794.433594 326.882812 792.710938 327.257812 C 790.835938 327.632812 789.035156 328.382812 786.710938 329.660156 C 782.882812 331.683594 776.882812 335.585938 772.535156 339.257812 C 768.183594 343.007812 763.007812 351.109375 760.535156 352.007812 C 759.710938 352.308594 758.882812 352.160156 758.585938 351.785156 C 758.210938 351.484375 758.507812 349.835938 758.507812 349.835938 "/></clipPath><clipPath id="e8ebdf21d7"><path d="M 863.21875 357.15625 L 869.472656 357.15625 L 869.472656 364.558594 L 863.21875 364.558594 Z M 863.21875 357.15625 "/></clipPath><clipPath id="9d20e30bdb"><path d="M 866.660156 363.714844 C 864.109375 358.6875 863.433594 359.289062 863.285156 359.0625 C 863.132812 358.914062 863.808594 357.488281 864.257812 357.339844 C 864.710938 357.1875 865.835938 357.640625 866.132812 358.089844 C 866.359375 358.539062 866.132812 359.4375 865.835938 359.8125 C 865.535156 360.113281 864.484375 360.265625 864.035156 360.113281 C 863.660156 359.890625 863.285156 359.363281 863.285156 358.914062 C 863.285156 358.464844 863.808594 357.5625 864.183594 357.339844 C 864.558594 357.1875 865.234375 357.265625 865.609375 357.5625 C 865.910156 357.789062 866.285156 358.390625 866.285156 358.765625 C 866.285156 359.214844 865.984375 359.8125 865.609375 360.039062 C 865.160156 360.265625 864.183594 360.1875 863.808594 359.890625 C 863.433594 359.664062 863.210938 359.140625 863.285156 358.765625 C 863.285156 358.3125 863.507812 357.789062 863.960938 357.488281 C 864.558594 357.113281 866.359375 357.039062 867.183594 357.5625 C 868.308594 358.3125 869.433594 361.164062 869.433594 362.4375 C 869.433594 363.339844 868.984375 364.3125 868.460938 364.539062 C 868.007812 364.6875 866.660156 363.714844 866.660156 363.714844 "/></clipPath></defs><g id="7496db39d1"><g clip-rule="nonzero" clip-path="url(#de2aeca387)"><g clip-rule="nonzero" clip-path="url(#3373e0672c)"><path style=" stroke:none;fill-rule:nonzero;fill:#0571d3;fill-opacity:1;" d="M 646.457031 319.53125 L 646.457031 467.90625 L 537.933594 467.90625 L 537.933594 319.53125 Z M 646.457031 319.53125 "/></g></g><g clip-rule="nonzero" clip-path="url(#61950e838d)"><g clip-rule="nonzero" clip-path="url(#d084513f76)"><path style=" stroke:none;fill-rule:nonzero;fill:#0571d3;fill-opacity:1;" d="M 732.335938 375.265625 L 732.335938 435.488281 L 653.289062 435.488281 L 653.289062 375.265625 Z M 732.335938 375.265625 "/></g></g><g clip-rule="nonzero" clip-path="url(#683e9a299c)"><g clip-rule="nonzero" clip-path="url(#b086ed3011)"><path style=" stroke:none;fill-rule:nonzero;fill:#0571d3;fill-opacity:1;" d="M 765.402344 330.710938 L 765.402344 456.839844 L 746.878906 456.839844 L 746.878906 330.710938 Z M 765.402344 330.710938 "/></g></g><g clip-rule="nonzero" clip-path="url(#235d56f786)"><g clip-rule="nonzero" clip-path="url(#118ba2e2f1)"><path style=" stroke:none;fill-rule:nonzero;fill:#0571d3;fill-opacity:1;" d="M 900.933594 321.183594 L 900.933594 489.675781 L 746.882812 489.675781 L 746.882812 321.183594 Z M 900.933594 321.183594 "/></g></g><g clip-rule="nonzero" clip-path="url(#e8ebdf21d7)"><g clip-rule="nonzero" clip-path="url(#9d20e30bdb)"><path style=" stroke:none;fill-rule:nonzero;fill:#0571d3;fill-opacity:1;" d="M 872.433594 354.339844 L 872.433594 367.519531 L 860.210938 367.519531 L 860.210938 354.339844 Z M 872.433594 354.339844 "/></g></g></g></svg>